<svg width="40mm" height="40mm" version="1.1" viewBox="0 0 40 40" xmlns="http://www.w3.org/2000/svg" xmlns:xlink="http://www.w3.org/1999/xlink">

<style>
@keyframes animate {
50% {
transform: scaleX(-1);}
}
path {
animation: animate linear 2.5s infinite;
transform-origin: right;
}
</style>

<linearGradient id="linearGradient3056" x2="40" y1="20" y2="20" gradientUnits="userSpaceOnUse">
<stop offset="50%" stop-color="#ff66ff" />
<stop offset="50%" stop-color="#66ff66" />
</linearGradient>

<g transform="translate(0 2.9445e-5)">
<g fill="url(#linearGradient3056)" aria-label="">
<path d="m33.436 19.977q0-0.72976-0.45584-1.1859l-11.806-11.813q-0.45584-0.4561-1.1624-0.4561-0.72934 0-1.1852 0.4561l-2.3704 2.3717-9.4131 9.4413q-0.47863 0.50171-0.47863 1.1859 0 0.68415 0.47863 1.1859l2.3704 2.3717q0.45584 0.4561 1.1624 0.4561 0.70655 0 1.1624-0.4561l4.9231-4.9259v13.09q0 0.68415 0.50142 1.1631 0.50142 0.47891 1.1852 0.47891h3.3276q0.68376 0 1.1624-0.47891 0.50142-0.4789 0.50142-1.1631v-13.09l4.9231 4.9259q0.50142 0.50171 1.1624 0.50171 0.68376 0 1.1852-0.50171l2.3704-2.3717q0.45584-0.4561 0.45584-1.1859zm4.9687-7.7537q1.5954 3.6944 1.5954 7.7765 0 4.0821-1.5954 7.7993-1.5727 3.7172-4.2393 6.3854-2.6667 2.6682-6.3818 4.2417-3.6923 1.5735-7.7721 1.5735-4.0798 0-7.7949-1.5735-3.6923-1.5735-6.3818-4.2417-2.6667-2.6682-4.2621-6.3854-1.5727-3.7172-1.5727-7.7993 0-4.0821 1.5727-7.7765 1.5954-3.6944 4.2621-6.3854 2.6895-2.691 6.3818-4.2645 3.7151-1.5735 7.7949-1.5735 4.0798 0 7.7721 1.5735 3.7151 1.5735 6.3818 4.2645 2.6667 2.691 4.2393 6.3854z" fill="url(#linearGradient3056)"/>
</g>
</g>
</svg>
