<svg width="6.2014mm" height="7.2762mm" version="1.1" viewBox="0 0 6.2014 7.2762" xmlns="http://www.w3.org/2000/svg" xmlns:xlink="http://www.w3.org/1999/xlink">
<defs>
<linearGradient id="linearGradient14647" x1="211.08" x2="211.08" y1="581.63" y2="590.01" gradientUnits="userSpaceOnUse">
<stop style="stop-color:#ff0" offset="0"/>
<stop style="stop-color:#0ff" offset="1"/>
</linearGradient>
</defs>
<g>
<g transform="translate(-53.199 -153.9)" style="stroke-width:.26458" aria-label="ï»">

<style>

@keyframes animate {
0% {
filter: hue-rotate(0deg);}
100% {
filter: hue-rotate(360deg);}
}

path {
animation: animate linear 2.5s infinite ;
}

</style>

<path d="m58.305 154.62v-0.36173q0-0.14986-0.10335-0.25322-0.09819-0.10335-0.25321-0.10335h-4.3718q-0.15503 0-0.25838 0.10335-0.10335 0.10336-0.11886 0.25322v1.4521q0.0155 0.15503 0.11886 0.25838 0.10335 0.10336 0.25838 0.11886h4.3718q0.15503-0.0155 0.25321-0.11886 0.10335-0.10335 0.10335-0.25838v-0.35656h0.36173v1.4521h-3.638v4.0152q0 0.14987 0.09819 0.25322 0.10335 0.10335 0.25838 0.10335h0.7338q0.15503 0 0.25838-0.10335 0.10335-0.10335 0.10335-0.25322v-3.2814h2.9197v-2.9197z" style="fill:#7f7f7f"/>
<path transform="scale(.26458)" d="m202.49 581.69c-0.39062 0-0.71615 0.13022-0.97657 0.39062-0.26041 0.26044-0.41015 0.57944-0.44921 0.95704v5.4883c0.0391 0.39062 0.18879 0.71615 0.44921 0.97656 0.26042 0.26043 0.58595 0.41016 0.97657 0.44922h16.523c0.39063-0.0391 0.70964-0.18879 0.95704-0.44922 0.21344-0.21344 0.33845-0.47056 0.37695-0.77148v-5.6934h0.0137c0-0.3776-0.13021-0.6966-0.39062-0.95704-0.24741-0.2604-0.56643-0.39062-0.95704-0.39062z" style="fill:url(#linearGradient14647);stroke-width:1"/>
</g>
</g>
</svg>
