<svg width="6.2012mm" height="6.2115mm" version="1.1" viewBox="0 0 6.2012 6.2115" xmlns="http://www.w3.org/2000/svg" xmlns:xlink="http://www.w3.org/1999/xlink">
<defs>
<linearGradient id="linearGradient19760" x1=".42978" x2="2.536" y1="5.7403" y2="3.6341" gradientUnits="userSpaceOnUse">
<stop style="stop-color:#ff0" offset="0"/>
<stop style="stop-color:#0ff" offset="1"/>
</linearGradient>
</defs>
<g style="stroke-width:.26458" aria-label="">

<style>

@keyframes animate {
0% {
filter: hue-rotate(0deg);}
100% {
filter: hue-rotate(360deg);}
}

path {
animation: animate linear 2.5s infinite ;
}

</style>

<path d="m2.4443 3.5812q0.13436 0.26355 0.37207 0.45475 0.23771 0.18603 0.52193 0.25838v0.24805q0.015503 0.73897-0.44958 1.2041-0.45992 0.46509-1.2041 0.46509-0.34623 0-0.63045-0.10335-0.27905-0.10852-0.47542-0.29455-0.1912-0.18603-0.32556-0.43925-0.13436-0.25838-0.19637-0.54777-0.056844-0.29455-0.056844-0.62012 0.020671 0.015503 0.14469 0.10852 0.12402 0.08785 0.21187 0.15503 0.093017 0.062011 0.20154 0.12402 0.11369 0.056844 0.16536 0.056844 0.13953 0 0.1912-0.12919 0.08785-0.22738 0.19637-0.38757 0.11369-0.1602 0.23771-0.26355 0.12919-0.10335 0.30489-0.16536 0.18087-0.062011 0.36173-0.08785 0.18087-0.025838 0.42891-0.036173z" style="fill:url(#linearGradient19760)"/>
<path d="m5.5965-1.993e-7q0.24288 0 0.42375 0.16536 0.18087 0.1602 0.18087 0.40307 0 0.20154-0.15503 0.51676-0.22738 0.42891-0.45475 0.84749-0.22738 0.41341-0.59428 0.99735t-0.56327 0.76481q-0.34106 0.31523-0.75447 0.31523-0.43408 0-0.74931-0.32039-0.31523-0.32556-0.31523-0.76481 0-0.20671 0.082682-0.39791 0.082682-0.19637 0.23771-0.3359l2.2066-2.005q0.20154-0.18603 0.45475-0.18603z" style="fill:#7f7f7f"/>
</g>
</svg>
