<svg width="40mm" height="40mm" version="1.1" viewBox="0 0 40 40" xmlns="http://www.w3.org/2000/svg" xmlns:xlink="http://www.w3.org/1999/xlink">
<defs>
<radialGradient id="radialGradient6010" cx="20.006" cy="19.994" r="20.006" gradientTransform="matrix(1 0 0 .99943 0 .011393)" gradientUnits="userSpaceOnUse">
<stop stop-color="#522617" offset="0"/>
<stop stop-color="#b25a27" offset="0.5"/>
<stop stop-color="#cd9671" offset="1"/>
</radialGradient>
</defs>
<g transform="translate(0 2.0651e-5)">
<g transform="scale(.99972 1.0003)" fill="url(#radialGradient6010)"  aria-label="">

<style>
@keyframes animate {
100% {
transform: rotate(45deg);}
}
path {
animation: animate linear .5s infinite;
transform-origin: center;
}
</style>

<path d="m24.714 24.714q1.9607-1.9607 1.9607-4.7193t-1.9607-4.7193q-1.9379-1.9607-4.6965-1.9607-2.7586 0-4.7193 1.9607t-1.9607 4.7193 1.9607 4.7193 4.7193 1.9607q2.7586 0 4.6965-1.9607zm15.298-7.5691v5.7908q0 0.31918-0.22798 0.61556-0.20519 0.29638-0.50157 0.34198l-4.8105 0.72955q-0.47877 1.3679-1.0259 2.371 0.88914 1.2767 2.8042 3.6022 0.25078 0.27358 0.25078 0.61556t-0.22799 0.61556q-0.68396 0.91194-2.5762 2.7814-1.8695 1.8695-2.4622 1.8695-0.31918 0-0.66116-0.22799l-3.6022-2.827q-1.2767 0.68396-2.371 1.0031-0.38758 3.4654-0.75235 4.8333-0.20519 0.72955-0.93474 0.72955h-5.7908q-0.36478 0-0.63836-0.22799-0.25078-0.22798-0.29638-0.54716l-0.72955-4.7877q-1.1399-0.36478-2.3482-0.95754l-3.6706 2.7814q-0.25078 0.22799-0.66116 0.22799-0.34198 0-0.63836-0.27358-3.2602-2.9638-4.3089-4.3773-0.18239-0.27358-0.18239-0.59276 0-0.31918 0.20519-0.59276 0.41037-0.54716 1.3223-1.7327 0.93474-1.1855 1.4135-1.8695-0.77515-1.4591-1.0715-2.5534l-4.7649-0.72955q-0.31918-0.045597-0.54716-0.31918-0.20519-0.27358-0.20519-0.59276v-5.7908q0-0.31918 0.20519-0.61556 0.22799-0.29638 0.50157-0.34198l4.8333-0.72955q0.31918-1.0487 1.0259-2.371-1.1399-1.6415-2.7814-3.6022-0.27358-0.31918-0.27358-0.63836 0-0.22799 0.25078-0.59276 0.66116-0.91194 2.5306-2.7814 1.8923-1.8695 2.485-1.8695 0.34198 0 0.68396 0.27358l3.6022 2.7814q1.2767-0.68396 2.371-1.0031 0.38758-3.4654 0.75235-4.8333 0.20519-0.72955 0.93474-0.72955h5.7908q0.36478 0 0.61556 0.22799 0.27358 0.22799 0.31918 0.54716l0.72955 4.7877q1.1399 0.36478 2.3482 0.95754l3.6934-2.7814q0.22798-0.22799 0.61556-0.22799 0.34198 0 0.66116 0.27358 3.2602 2.9638 4.2861 4.4229 0.18239 0.18239 0.18239 0.54716 0 0.31918-0.20519 0.59276-0.41037 0.54716-1.3451 1.7327-0.91194 1.1855-1.3907 1.8695 0.75235 1.4591 1.0715 2.5534l4.7649 0.72955q0.31918 0.0456 0.52437 0.31918 0.22798 0.27358 0.22798 0.59276z"/>
</g>
<path transform="matrix(.26458 0 0 .26458 0 -2.0651e-5)" d="m69.328 99.77c-8.5986-2.3144-15.674-9.468-17.929-18.129-1.4629-5.6166-0.53108-12.898 2.2979-17.957 6.5401-11.694 21.048-16.412 32.636-10.615 15.614 7.8114 19.002 27.87 6.7734 40.099-5.0531 5.0531-10.596 7.349-17.603 7.2916-2.0478-0.0168-4.8265-0.32743-6.1749-0.69038z" fill="none" stroke-width="0" style="paint-order:stroke fill markers"/>
</g>
</svg>
