<svg width="40mm" height="40mm" version="1.1" viewBox="0 0 40 40" xmlns="http://www.w3.org/2000/svg">
<g transform="matrix(5.0394 0 0 5.0394 -286.82 -755.38)" stroke-width="0" aria-label="">

<style>
@keyframes animate {
0% {
filter: hue-rotate(360deg);}
100% {
filter: hue-rotate(0deg);}
}
path {
fill: yellow;
animation: animate steps(5) 2.5s infinite;
}
</style>

<path d="m57.805 149.9h6.1598q0.37207 0 0.63045 0.25838t0.25838 0.63045v6.1598q0 0.37207-0.25838 0.63045t-0.63045 0.25838h-6.1598q-0.37207 0-0.63045-0.25838t-0.25838-0.63045v-6.1598q0-0.37207 0.25838-0.63045t0.63045-0.25838zm3.0799 3.0799q-0.37207 0.0207-0.62012 0.26872-0.24805 0.24804-0.24805 0.62011t0.24805 0.62012 0.62012 0.24805 0.62012-0.24805 0.24805-0.62012-0.24805-0.62011q-0.24805-0.24805-0.62012-0.26872z"/>
</g>
</svg>
