<svg width="40mm" height="40mm" version="1.1" viewBox="0 0 40 40" xmlns="http://www.w3.org/2000/svg">
<g transform="translate(0 -4.5164e-5)">
<g stroke-width="0" aria-label="">

<style>
@keyframes animate {
0% {
filter: hue-rotate(360deg);}
100% {
filter: hue-rotate(0deg);}
}
path {
fill: yellow;
animation: animate steps(20) 2.5s infinite;
}
</style>

<path d="m4.4792 4.5164e-5h31.042q1.875 0 3.1771 1.3021 1.3021 1.3021 1.3021 3.1771v31.042q0 1.875-1.3021 3.1771-1.3021 1.3021-3.1771 1.3021h-31.042q-1.875 0-3.1771-1.3021-1.3021-1.3021-1.3021-3.1771v-31.042q0-1.875 1.3021-3.1771 1.3021-1.3021 3.1771-1.3021zm4.375 4.4792q-1.875 0-3.125 1.25-1.25 1.25-1.25 3.125 0 1.875 1.25 3.1771 1.25 1.3021 3.125 1.3021 1.875 0 3.1771-1.3021 1.3021-1.3021 1.3021-3.1771 0-1.875-1.3021-3.125-1.3021-1.25-3.1771-1.25zm22.292 22.187q-1.875 0-3.1771 1.3021-1.3021 1.3021-1.3021 3.1771t1.3021 3.125q1.3021 1.25 3.1771 1.25t3.125-1.25 1.25-3.125-1.25-3.1771q-1.25-1.3021-3.125-1.3021zm0-22.187q-1.875 0-3.1771 1.25-1.3021 1.25-1.3021 3.125 0 1.875 1.3021 3.1771 1.3021 1.3021 3.1771 1.3021t3.125-1.3021 1.25-3.1771q0-1.875-1.25-3.125-1.25-1.25-3.125-1.25zm-22.292 22.187q-1.875 0-3.125 1.3021-1.25 1.3021-1.25 3.1771t1.25 3.125q1.25 1.25 3.125 1.25 1.875 0 3.1771-1.25 1.3021-1.25 1.3021-3.125t-1.3021-3.1771q-1.3021-1.3021-3.1771-1.3021z"/>
</g>
</g>
</svg>
