<svg width="6.2012mm" height="3.2948mm" version="1.1" viewBox="0 0 6.2012 3.2948" xmlns="http://www.w3.org/2000/svg" xmlns:xlink="http://www.w3.org/1999/xlink">
<defs>
<linearGradient id="linearGradient3361" x2="6.2012" y1="1.6474" y2="1.6474" gradientUnits="userSpaceOnUse">
<stop style="stop-color:#C4A484" offset="0"/>
<stop style="stop-color:#654321" offset="1"/>
</linearGradient>
</defs>

<style>

@keyframes animate {
25% {
filter: blur(0px);}
100% {
filter: blur(1px);}
}

path {
animation: animate ease-in-out 2.5s infinite alternate ;
}

</style>

<g style="fill:url(#linearGradient3361);stroke-width:.26458" aria-label="">
<path d="m6.1908 1.3982q0-0.21704-0.21704-0.24288l-0.10335-0.010335-1.2764-0.94051q-0.37724-0.29972-0.86299-0.1602-0.18603 0.046509-0.13436 0.23771 0.046509 0.20154 0.24805 0.13953 0.27905-0.077514 0.50643 0.10335l0.77514 0.56844q-0.16536 0-0.47025 0.025838-0.37724 0.062012-0.70796 0.14986l-0.12402 0.025838q-0.71313 0.13953-1.4211 0l-0.13953-0.025838q-0.3514-0.10335-0.7183-0.14986-0.30489-0.025838-0.47025-0.025838l0.77514-0.56844q0.20154-0.16536 0.50643-0.10335 0.20154 0.062012 0.24805-0.13953 0.051676-0.1912-0.13436-0.23771-0.48576-0.13953-0.86299 0.1602l-1.2764 0.94051-0.10335 0.010335q-0.21704 0.025838-0.21704 0.24288l-0.010335 0.22738q0 0.1757 0.14986 0.23771 0.067179 0.025838 0.067179 0.08785l0.025838 0.41858q0.036173 0.3824 0.31523 0.64079 0.27905 0.25838 0.67179 0.26872l0.46509 0.015503q0.5581 0 0.86299-0.48059l0.37724-0.65629q0.041341-0.067179 0.15503-0.067179h0.020671q0.12919 0 0.15503 0.051676l0.37724 0.67179q0.30489 0.48059 0.86299 0.48059l0.46509-0.015503q0.39274-0.010335 0.67179-0.26872 0.27905-0.25838 0.31523-0.64079l0.025838-0.41858q0-0.062012 0.051676-0.08785 0.16536-0.062012 0.16536-0.23771zm-1.2041 0.13953q0.13953 0 0.1912 0.010335 0.34106 0.051676 0.3514 0.33073l0.015503 0.42891q0.010335 0.21704-0.14469 0.39274-0.14986 0.1757-0.38757 0.1757-0.3669 0.025838-0.3824 0.025838-0.11369 0-0.20671-0.025838-0.093017-0.025838-0.17053-0.062012-0.077514-0.036173-0.13953-0.08785t-0.11369-0.10852q-0.051676-0.056844-0.093017-0.11369-0.036173-0.056844-0.067179-0.10852-0.031006-0.051676-0.046509-0.08785-0.010335-0.036173-0.020671-0.077514l-0.015503-0.025838q-0.062012-0.20154 0.067179-0.3669 0.098185-0.1757 0.29972-0.21187 0.52193-0.08785 0.86299-0.08785zm-3.4158 1.3643-0.3824-0.025838q-0.23771 0-0.39274-0.1757-0.16536-0.16536-0.13953-0.39274l0.015503-0.42891q0.010335-0.27905 0.3514-0.33073 0.30489-0.036173 1.0542 0.077514 0.20154 0.036173 0.29972 0.20154 0.11369 0.16536 0.067179 0.3669-0.24288 0.70796-0.87333 0.70797z" style="fill:url(#linearGradient3361)"/>
</g>
</svg>
