<svg width="40mm" height="39.977mm" version="1.1" viewBox="0 0 40 39.977" xmlns="http://www.w3.org/2000/svg" xmlns:xlink="http://www.w3.org/1999/xlink">

<style>
@keyframes animate {
0%, 50% {
transform: scaleX(-1);}
50.001%, 100% {
transform: scaleX(1);}
}
path {
animation: animate linear 1.5s infinite;
transform-origin: center;
}
</style>

<linearGradient id="tipcolor" gradientTransform="rotate (90)">
<stop offset="0%" stop-color="#bbb" />
<stop offset="100%" stop-color="#999" />
</linearGradient>

<linearGradient id="bodycolor">
<stop offset="50%" stop-color="#F07777" />
<stop offset="50%" stop-color="#8792E5" />
</linearGradient>

<path d="m13.333 1.641v10.028q0 0.68376-0.50142 1.1624-0.47863 0.47863-1.1624 0.47863h-10.006q-0.68376 0-1.1852-0.47863-0.47863-0.47863-0.47863-1.1624v-10.028q0-0.68376 0.47863-1.1624 0.50142-0.47863 1.1852-0.47863h10.006q0.68376 0 1.1624 0.47863 0.50142 0.47863 0.50142 1.1624zm26.667 0v10.028q0 0.68376-0.50142 1.1624-0.47863 0.47863-1.1624 0.47863h-10.006q-0.68376 0-1.1852-0.47863-0.47863-0.47863-0.47863-1.1624v-10.028q0-0.68376 0.47863-1.1624 0.50142-0.47863 1.1852-0.47863h10.006q0.68376 0 1.1624 0.47863 0.50142 0.47863 0.50142 1.1624z" fill="url(#tipcolor)"/>
<path d="m40 18.325v3.3276q0 3.9202-1.5043 7.339-1.5043 3.4188-4.1482 5.8348-2.6211 2.416-6.3362 3.7835-3.7151 1.3675-8 1.3675t-8.0228-1.3675q-3.7151-1.3675-6.359-3.7835-2.6211-2.416-4.1254-5.8348-1.5043-3.4188-1.5043-7.339v-3.3276q0-0.68376 0.47863-1.1852 0.50142-0.50142 1.1852-0.50142h10.006q0.68376 0 1.1624 0.50142 0.50142 0.50142 0.50142 1.1852v3.3276q0 1.3675 0.59259 2.3476 0.61538 0.98006 1.4131 1.4815 0.79772 0.50142 1.8462 0.77493 1.0712 0.2735 1.6638 0.34188 0.61538 0.06838 1.1624 0.06838t1.1396-0.06838q0.61538-0.06838 1.6638-0.34188 1.0712-0.2735 1.8462-0.77493 0.79772-0.50142 1.3903-1.4815 0.61538-0.98006 0.61538-2.3476v-3.3276q0-0.68376 0.47863-1.1852 0.50142-0.50142 1.1852-0.50142h10.006q0.68376 0 1.1624 0.50142 0.50142 0.50142 0.50142 1.1852z" fill="url(#bodycolor)" />

</svg>
