<svg width="19.974mm" height="40mm" version="1.1" viewBox="0 0 19.974 40" xmlns="http://www.w3.org/2000/svg" xmlns:xlink="http://www.w3.org/1999/xlink">

<style>
@keyframes animate {
0% {
filter: brightness(80%);}
100% {
filter: brightness(120%);}
}
path {
animation: animate linear 1.5s infinite alternate ;
}
</style>

<defs>
<linearGradient id="linearGradient16800" x1="-2.0862e-7" x2="19.974" y1="20" y2="20" gradientUnits="userSpaceOnUse">
<stop stop-color="#ececec" offset="0"/>
<stop stop-color="#808080" offset="1"/>
</linearGradient>
</defs>
<g fill="url(#linearGradient16800)" stroke-width="1.3316" aria-label="">
<path d="m2.6788 9.961q-2.6788 4.6034-2.6788 10.039t2.6788 10.039q2.6788 4.6034 7.2822 7.2822 4.6034 2.6788 10.013 2.6788-5.3576-7.3342-5.3576-20.026 0-10.611 5.3576-19.974-5.4096 0-10.013 2.6788-4.6034 2.6788-7.2822 7.2822z" fill="url(#linearGradient16800)"/>
</g>
<g fill="#4d4d4d">
<ellipse cx="11.362" cy="9.5311" rx=".90038" ry=".49929"/>
<ellipse cx="5.7867" cy="19.864" rx=".14516" ry=".94989"/>
<ellipse cx="8.4335" cy="27.371" rx=".70252" ry=".43969"/>
<ellipse cx="13.871" cy="36.087" rx="1.3686" ry="1.1685"/>
<ellipse cx="11.462" cy="25.591" rx=".55416" ry=".060589"/>
<ellipse cx="4.1726" cy="25.073" rx=".22454" ry=".64192"/>
<ellipse cx="10.18" cy="18.834" rx="1.1748" ry=".68646"/>
<ellipse cx="5.4114" cy="14.183" rx=".85182" ry=".1862"/>
</g>
<g fill="#808080">
<ellipse cx="2.8543" cy="18.396" rx=".30675" ry=".35471"/>
<ellipse cx="8.6041" cy="22.649" rx=".41678" ry=".2844"/>
<ellipse cx="8.4243" cy="31.728" rx=".3168" ry=".41809"/>
<ellipse cx="11.554" cy="13.858" rx=".58683" ry=".1925"/>
<ellipse cx="13.088" cy="4.8016" rx=".5636" ry=".69684"/>
</g>
<ellipse cx="12.967" cy="30.367" rx=".40604" ry=".25931" fill="#4d4d4d"/>
<ellipse cx="6.8349" cy="8.2813" rx=".20762" ry=".84043" fill="#4d4d4d"/>
</svg>
