<svg width="6.2012mm" height="7.7514mm" version="1.1" viewBox="0 0 6.2012 7.7514" xmlns="http://www.w3.org/2000/svg" xmlns:xlink="http://www.w3.org/1999/xlink">
<defs>
<linearGradient id="linearGradient24228" x1="11.828" x2="11.828" y1="25.365" y2="9.6749" gradientUnits="userSpaceOnUse">
<stop style="stop-color:#0ff" offset="0"/>
<stop style="stop-color:#ff0" offset="1"/>
</linearGradient>
</defs>
<g style="stroke-width:.26458" aria-label="ï’">

<style>

@keyframes animate {
0% {
filter: hue-rotate(0deg);}
100% {
filter: hue-rotate(-360deg);}
}

path {
animation: animate linear 2.5s infinite ;
}

</style>

<path d="m0.90433 0.90433q0.90433-0.90433 2.1962-0.90433t2.1962 0.90433q0.90433 0.90433 0.90433 2.1962v0.51676q0 0.51676-0.51676 0.51676v2.5838q0 1.0335-2.5838 1.0335-2.5838 0-2.5838-1.0335v-2.5838q-0.51676 0-0.51676-0.51676v-0.51676q0-1.2919 0.90433-2.1962zm3.7465 4.2633q0.51676 0 0.51676-0.51676v-0.95084q-0.77514 0.43408-2.0671 0.43408t-2.0671-0.43408v0.95084q0 0.51676 0.51676 0.51676v0.51676q0 0.51676 0.51676 0.51676t0.51676-0.51676v-0.25838q0-0.25838 0.25838-0.25838 0.25838 0 0.25838 0.25838v1.0335q0 0.25838 0.25838 0.25838t0.25838-0.25838v-1.2919q0-0.25838 0.25838-0.25838 0.25838 0 0.25838 0.25838v0.25838q0 0.25838 0.25838 0.25838 0.25838 0 0.25838-0.25838zm-3.4416-2.0671q0.51676 0.51676 1.8914 0.51676 1.3746 0 1.8914-0.51676-0.51676-0.51676-1.8914-0.51676-1.3746 0-1.8914 0.51676zm-0.69246 0q0-1.0335 2.5838-1.0335 2.5838 0 2.5838 1.0335 0-1.0335-0.77514-1.8087-0.77514-0.77514-1.8087-0.77514-1.0335 0-1.8087 0.77514-0.77514 0.77514-0.77514 1.8087z" style="fill:#7f7f7f"/>
<path transform="scale(.26458)" d="m12.156 25.211c-0.13553-0.08522-0.28661-0.27024-0.33573-0.41116-0.05817-0.16686-0.08932-1.0248-0.08932-2.4602 0-2.3925-0.02459-2.548-0.43226-2.7337-0.28347-0.12916-0.87157-0.11864-1.1404 0.02039-0.31261 0.16166-0.38625 0.42314-0.42396 1.5054-0.047311 1.358-0.29855 1.8549-1.0766 2.1294-0.40188 0.14179-1.1775 0.15735-1.6267 0.03263-0.18559-0.051517-0.44995-0.22226-0.64141-0.41428-0.41751-0.41871-0.50427-0.80702-0.50427-2.2569v-1.0931l-0.37523-0.053873c-0.75501-0.1084-1.1976-0.43677-1.4422-1.07-0.12139-0.31422-0.2202-4.3854-0.10513-4.3315 0.03642 0.01707 0.2795 0.13128 0.54019 0.25381 1.0923 0.51343 2.3685 0.87817 3.9103 1.1176 1.1291 0.17534 4.2006 0.24344 5.5046 0.12205 1.9237-0.17908 3.8949-0.67105 5.0745-1.2665l0.48017-0.24239-4.41e-4 1.9958c-2.37e-4 1.129-0.03587 2.1233-0.08203 2.2895-0.16427 0.59149-0.71084 1.0202-1.44 1.1296l-0.37337 0.05599-0.0019 0.44525c-0.0044 1.0522-0.26619 1.4327-0.98555 1.4327-0.33592 0-0.47239-0.04016-0.6473-0.19048-0.21513-0.18488-0.22292-0.21911-0.26535-1.1652-0.02869-0.6397-0.08224-1.035-0.1558-1.1501-0.3102-0.4855-1.4162-0.4855-1.7381 0-0.09516 0.14354-0.12348 0.70276-0.1558 3.0768l-0.0395 2.9014-0.2102 0.21007c-0.28498 0.28481-0.86871 0.34268-1.2211 0.12107zm-1.9654-11.629c-2.3881-0.15391-4.2068-0.72506-5.3611-1.6836l-0.2264-0.18802 0.42839-0.32344c0.9171-0.69242 2.3581-1.1975 4.1321-1.4485 1.0885-0.15396 4.2914-0.12961 5.3926 0.040988 1.057 0.16377 2.0822 0.44727 2.7675 0.76536 0.52617 0.24422 1.4378 0.84803 1.4378 0.9523 0 0.12028-0.60025 0.55422-1.1849 0.85661-1.1463 0.59284-2.4566 0.89328-4.5027 1.0324-1.2606 0.08569-1.496 0.08536-2.8833-4e-3z" style="fill:url(#linearGradient24228);paint-order:markers fill stroke"/>
</g>
</svg>
