<svg width="40mm" height="30.915mm" version="1.1" viewBox="0 0 40 30.915" xmlns="http://www.w3.org/2000/svg">
<g stroke-width="1.0524" aria-label="">

<style>
@keyframes animate {
0% {
filter: brightness(0%);}
100% {
filter: brightness(100%);}
}
path {
fill: url(#grad);
animation: animate ease 1s infinite alternate ;
}
</style>

<linearGradient id="grad" gradientTransform="rotate (45)">
<stop offset="0%" stop-color="#5cc9fb" />
<stop offset="50%" stop-color="#1e5ddb" />
<stop offset="100%" stop-color="#303792" />
</linearGradient>

<path d="m23.967 6.4132q0.08222 0.98664 0.08222 3.0421v7.7287h0.08222v0.08222h0.16444v0.08222q0.08222 0 0.4111 0.16444 0.08222 0 0.49332 0.12333 0.4111 0.12333 0.65776 0.20555 2.0555 0.16444 2.8777-0.24666h0.08222q0.16444-0.16444 0.24666-0.16444l0.16444-0.16444q0.16444-0.08222 0.24666-0.16444l0.49332-0.49332q0.08222-0.08222 0.16444-0.08222 0.08222-0.08222 0.16444-0.20555t0.08222-0.20555 0.16444-0.24666v-0.08222q0-0.08222 0.08222-0.20555t0.16444-0.20555q0-0.24666 0.16444-0.4111 0-0.16444 0.16444-0.65776 0-0.32888 0.08222-0.57554 0.08222-0.16444 0.08222-0.65776 0.08222-0.73998-0.08222-3.371h-0.08222v-0.65776l-0.08222-0.08222q0-0.24666-0.16444-0.65776-0.16444-0.4111-0.16444-0.65776-0.16444-0.16444-0.16444-0.32888-0.16444-0.32888-0.16444-0.4111l-0.08222-0.16444q-0.08222-0.16444-0.16444-0.16444-0.4111-0.57554-0.8222-1.0689h-0.08222l0.08222-0.08222q-1.0689-0.90442-1.3977-1.0689 0-0.08222-0.16444-0.16444l-0.16444-0.08222-0.73998-0.49332h-0.08222l-0.49332-0.24666q-0.24666-0.08222-0.57554-0.24666l-0.32888-0.16444q-0.16444 0-0.32888-0.16444-0.08222 0-0.24666-0.04111t-0.24666-0.04111q0 0-0.08222-0.08222-0.16444 0-0.16444-0.08222-0.24666 0-0.4111-0.16444-0.16444 0-0.65776-0.16444-0.49332-0.16444-0.8222-0.24666l-0.73998-0.24666q-0.16444 0-0.32888-0.16444h-0.32888v-0.08222h-0.32888q-0.24666-0.16444-1.0689-0.32888-0.49332-0.16444-1.1511-0.32888v-0.08222q-0.16444 0-0.8222-0.16444l-0.16444-0.08222q-0.16444 0-0.24666 0-0.08222-0.08222-0.4111-0.08222-0.24666-0.08222-0.90442-0.24666-0.24666 0-0.4111-0.08222-0.16444-0.08222-0.57554-0.08222v28.777q0.32888 0.16444 0.49332 0.16444 0.16444 0.08222 0.45221 0.20555 0.28777 0.12333 0.45221 0.12333 0.08222 0 0.20555 0.04111t0.20555 0.04111q0.08222 0.08222 0.32888 0.08222 0.16444 0.16444 0.4111 0.16444 0.16444 0.08222 0.24666 0.08222 0.32888 0.16444 0.57554 0.16444l0.73998 0.24666v0.08222h0.32888q0 0.08222 0.16444 0.08222t0.16444 0.08222q0.16444 0.08222 0.45221 0.16444 0.28777 0.08222 0.45221 0.08222 0.65776 0.24666 0.8222 0.16444l-0.16444 0.16444h0.32888q-0.08222-0.65776-0.08222-1.9733v-22.364q0-0.8222 0.49332-1.3977l0.16444-0.08222q0.65776-0.08222 1.1922 0.28777 0.53443 0.36999 0.61665 1.0277zm-10.277 17.184q-0.16444 0.08222-0.4111 0.08222v0.08222h-0.16444q-0.16444 0.08222-0.4111 0.16444t-0.32888 0.16444l-0.16444 0.08222q-0.16444 0-0.24666 0-0.16444 0.16444-0.4111 0.16444-0.08222 0.08222-0.16444 0.08222-0.16444 0.08222-0.24666 0.08222t-0.20555 0.08222q-0.12333 0.08222-0.20555 0.08222-0.16444 0-0.16444 0.08222-0.57554 0.24666-1.3155 0.24666v0.08222q-1.1511 0.16444-2.3022 0v-0.08222q-0.24666 0-0.4111-0.08222-0.08222 0-0.4111-0.16444l-0.08222-0.16444h-0.08222q0-0.08222 0.04111-0.24666 0.04111-0.16444 0.04111-0.24666 0 0 0.32888-0.16444t0.4111-0.24666q0.08222 0 0.57554-0.20555 0.49332-0.20555 0.8222-0.28777 0.24666-0.08222 0.57554-0.24666h0.24666v-0.08222q0.08222 0 0.24666-0.08222 0.16444-0.08222 0.24666-0.08222 0.08222 0 0.20555-0.04111 0.12333-0.04111 0.20555-0.04111l-0.08222-0.08222q0.24666 0 0.4111-0.08222 0.08222 0 0.20555-0.04111t0.20555-0.12333v-0.08222h0.32888q0.24666-0.08222 0.69887-0.24666 0.45221-0.16444 0.61665-0.24666h0.16444q0.16444-0.16444 0.32888-0.16444 0.08222-0.08222 0.24666-0.08222 0.16444-0.08222 0.65776-0.24666v-3.7821h-0.32888v0.08222q-0.08222 0.08222-0.16444 0.08222t-0.16444 0.08222q-0.08222 0-0.24666 0.08222h-0.16444q-0.32888 0.16444-0.4111 0.16444l-0.73998 0.24666-0.49332 0.24666q-0.49332 0.16444-0.8222 0.24666-0.08222 0.08222-0.32888 0.08222l-0.49332 0.24666h-0.24666q-0.16444 0.08222-0.8222 0.32888-0.16444 0.08222-0.49332 0.20555-0.32888 0.12333-0.49332 0.20555h-0.24666l-0.49332 0.24666q-0.08222 0-0.16444 0.08222h-0.16444q-0.16444 0.08222-0.49332 0.20555-0.32888 0.12333-0.49332 0.20555-0.24666 0-0.32888 0.08222h-0.16444q-0.16444 0.08222-0.32888 0.24666h-0.32888v0.08222q-0.08222 0-0.4111 0.08222-0.32888 0.08222-0.4111 0.16444 0 0-0.32888 0.16444-0.08222 0.08222-0.28777 0.16444-0.20555 0.08222-0.28777 0.08222t-0.16444 0.08222q-0.32888 0.16444-0.49332 0.24666v0.08222q-0.08222-0.08222-0.16444-0.08222v0.08222q-0.16444 0.24666-0.57554 0.32888-0.65776 0.65776-0.73998 0.8222-0.4111 0.73998 0 1.3977 0.16444 0.32888 0.32888 0.49332 0.16444 0.08222 0.49332 0.4111 0.32888 0.16444 0.49332 0.32888 0.08222 0 0.24666 0.08222h0.08222q0.16444 0.16444 0.32888 0.16444 0.32888 0.16444 0.49332 0.16444 0.32888 0.16444 0.98664 0.32888v0.08222h0.4111q0.08222 0.08222 0.16444 0.08222 0.16444 0.08222 0.24666 0.08222 0.24666 0 0.4111 0.08222t0.49332 0.08222q0.16444 0.08222 0.49332 0.08222l0.08222 0.08222h0.32888q0.16444-0.32888 0.16444 0.08222 0.16444 0 0.49332 0.04111t0.4111 0.04111v0.08222h1.2333q0.65776 0.08222 2.0555 0.08222 0.4111-0.08222 1.2333-0.08222l-0.08222-0.08222q0.24666 0 0.57554-0.04111t0.49332-0.04111q0.16444 0 0.4111-0.04111t0.4111-0.12333zm26.31-1.2333t-0.16444-0.32888v-0.08222l-0.16444-0.16444q-0.08222-0.16444-0.24666-0.32888v-0.08222h-0.16444q-0.16444-0.16444-0.65776-0.49332h-0.08222l-0.08222-0.16444-0.08222 0.08222q-0.32888-0.16444-0.4111-0.24666-0.16444 0-0.32888-0.16444-0.24666-0.08222-0.69887-0.24666-0.45221-0.16444-0.61665-0.16444-0.98664-0.24666-1.0689-0.24666v-0.08222q-0.24666 0-0.4111-0.08222-1.0689-0.24666-1.1511-0.24666h-0.90442l0.08222-0.08222q-0.16444 0-0.32888-0.04111t-0.32888-0.04111q-0.90442 0-1.3977-0.08222-0.32888 0-0.8222 0-0.49332 0-0.8222-0.08222v0.08222q-0.57554 0-1.7266 0.16444v0.08222h-0.90442v0.08222q-0.4111 0-0.57554 0.08222-0.08222 0-0.24666 0.04111t-0.24666 0.04111q-0.08222 0-0.28777 0.04111t-0.28777 0.12333q-0.65776 0.16444-1.1511 0.32888h-0.24666q-0.49332 0.16444-0.65776 0.24666-0.16444 0.16444-0.08222 0.4111v3.5355l0.73998-0.24666q0.08222-0.08222 0.24666-0.08222 0.24666-0.08222 0.57554-0.24666h0.16444q0.32888-0.16444 0.8222-0.32888 0.08222 0 0.20555-0.04111 0.12333-0.04111 0.20555-0.12333 0.08222 0 0.28777-0.08222t0.28777-0.08222q0.08222-0.08222 0.24666-0.08222 0.32888-0.16444 0.49332-0.16444v-0.08222q0.16444 0 0.45221-0.08222 0.28777-0.08222 0.45221-0.16444l0.49332-0.24666h0.24666q0.08222 0 0.16444-0.08222l0.16444-0.08222q0.16444 0 0.45221-0.08222 0.28777-0.08222 0.45221-0.16444 0.08222-0.08222 0.8222-0.24666 0.16444-0.08222 0.57554-0.08222 0.24666-0.08222 1.6444-0.08222l-0.08222 0.08222q0.49332 0 0.73998 0.08222l0.32888 0.16444q0.49332 0.32888 0.24666 0.65776l-0.16444 0.08222-0.08222 0.16444h-0.08222l-0.49332 0.24666v0.08222q-0.08222 0-0.8222 0.24666h-0.16444q-0.08222 0.08222-0.16444 0.08222v0.08222q-0.24666 0-0.32888 0.08222l-1.48 0.49332-0.08222 0.08222q-0.08222 0-0.16444 0-0.16444 0-0.32888 0.16444h-0.16444q-0.08222 0-0.16444 0.08222t-0.16444 0.08222q-0.73998 0.32888-1.3155 0.4111l-0.49332 0.24666q-0.24666 0-0.32888 0.08222-0.08222 0-0.16444 0.04111t-0.16444 0.04111l-0.49332 0.24666q-0.49332 0.16444-0.8222 0.24666l0.08222 0.08222h-0.4111v0.08222q-0.08222 0-0.28777 0.04111t-0.28777 0.12333q-0.08222 0-0.28777 0.08222-0.20555 0.08222-0.36999 0.16444l-0.73998 0.24666-0.49332 0.24666v3.6999l1.48-0.49332q0.16444-0.08222 0.65776-0.24666 0.08222-0.08222 0.32888-0.08222 0.16444-0.08222 0.8222-0.32888l0.73998-0.24666q0-0.08222 0.16444-0.08222t0.16444-0.08222q0.24666-0.08222 0.86331-0.28777 0.61665-0.20555 0.94553-0.28777v-0.08222l0.16444-0.08222h0.16444l0.49332-0.24666h0.24666l0.49332-0.24666q0.24666 0 0.32888-0.08222 0.08222 0 0.4111-0.16444 0.08222 0 0.20555-0.04111t0.20555-0.04111q0.16444-0.08222 0.49332-0.20555t0.49332-0.20555q0.08222 0 0.24666-0.08222h0.08222l0.49332-0.24666h0.24666q0-0.08222 0.16444-0.08222 0.16444 0 0.16444-0.08222 0.08222-0.08222 0.24666-0.08222t0.24666-0.08222q1.48-0.49332 2.1377-0.8222 0.24666 0 0.32888-0.08222 0.16444-0.08222 0.45221-0.20555 0.28777-0.12333 0.36999-0.12333 1.1511-0.65776 1.6444-1.0689l0.08222-0.16444h0.08222q0.08222-0.08222 0.08222-0.16444 0 0 0.08222-0.08222 0-0.16444 0.08222-0.16444 0.16444-0.24666 0.16444-0.98664z"/>
</g>
</svg>
