<svg width="25.736mm" height="40mm" version="1.1" viewBox="0 0 25.736 40" xmlns="http://www.w3.org/2000/svg">
<g transform="matrix(3.7796 0 0 3.7796 -179.61 -582.14)" stroke-width="0" aria-label="">

<style>
path {
fill: url(#grad);
}
path:hover {
fill: url(#gradhover);
}
</style>

<linearGradient id="grad">
<stop offset="0%" stop-color="#f0f" />
<stop offset="100%" stop-color="#0ff" />
</linearGradient>

<linearGradient id="gradhover">
<stop offset="0%" stop-color="#ff0" />
<stop offset="100%" stop-color="#0f0" />
</linearGradient>

<path d="m54.212 160.18q0.18087 0.17053 0.08268 0.40307-0.04134 0.10336-0.13953 0.17054-0.09819 0.0672-0.21187 0.0672h-2.2531l1.1886 2.8112q0.06201 0.14986 0 0.28939-0.05684 0.14469-0.20154 0.20671l-1.049 0.44441q-0.14986 0.062-0.29456 0-0.13953-0.0568-0.20154-0.20154l-1.1265-2.6717-1.8397 1.8448q-0.11369 0.11369-0.26872 0.11369-0.05684 0-0.13953-0.031-0.23771-0.0982-0.23771-0.34623v-8.8832q0-0.11368 0.06718-0.21187 0.06718-0.0982 0.17053-0.13952 0.06718-0.0258 0.13953-0.0258 0.16536 0 0.26872 0.10852z" stroke-width="0"/>
</g>
</svg>
