<svg width="54.136mm" height="10.346mm" version="1.1" viewBox="0 0 54.136 10.346" xmlns="http://www.w3.org/2000/svg">
    
<style>
path {
fill: url(#grad);
}
</style>

<linearGradient id="grad">
<stop offset="0%" stop-color="cyan" />
<stop offset="100%" stop-color="magenta" />
</linearGradient>
    
<path d="m1.8707 7.9788q-0.63045 0-1.0749-0.036173-0.43925-0.036174-0.79581-0.11886l0.12402-0.99218q1.0542 0.16536 1.7467 0.16536 0.82682 0 1.2041-0.1602 0.37724-0.16536 0.37724-0.52193 0-0.23771-0.12919-0.36173-0.12402-0.12402-0.40824-0.19637l-1.2609-0.32039q-0.5271-0.13436-0.84232-0.31006-0.31523-0.1757-0.47025-0.44442-0.15503-0.27388-0.15503-0.68213 0-0.60461 0.28939-0.97668 0.29455-0.37724 0.9095-0.55294 0.62012-0.1757 1.6123-0.1757 0.75447 0 1.4469 0.10335l-0.11369 0.95084q-0.78031-0.072347-1.3643-0.072347-0.86816 0-1.2557 0.1602-0.38757 0.15503-0.38757 0.5116 0 0.22738 0.13436 0.34106 0.13436 0.11369 0.45475 0.19637l1.0129 0.24805q0.58911 0.14469 0.95084 0.34106t0.53743 0.49092q0.1757 0.29455 0.1757 0.72864 0 0.59428-0.28422 0.96635-0.28422 0.3669-0.88366 0.5426-0.59428 0.1757-1.5503 0.1757z"/>
<path d="m8.4956 7.9788q-0.75447 0-1.2971-0.33073-0.53743-0.3359-0.82165-0.97151-0.27905-0.64079-0.27905-1.54 0-0.89917 0.27905-1.5348 0.28422-0.64079 0.82165-0.97151 0.5426-0.3359 1.2971-0.3359t1.2919 0.3359q0.5426 0.33073 0.82165 0.97151 0.28422 0.63562 0.28422 1.5348 0 0.89917-0.28422 1.54-0.27905 0.63562-0.82165 0.97151-0.53743 0.33073-1.2919 0.33073zm0-0.98185q0.60461 0 0.93017-0.48059 0.33073-0.48576 0.33073-1.3798t-0.33073-1.3746q-0.32556-0.48576-0.93017-0.48576t-0.93534 0.48576q-0.32556 0.48059-0.32556 1.3746t0.32556 1.3798q0.33073 0.48059 0.93534 0.48059z"/>
<path d="m16.133 2.2944q0.56844 0 0.82682 0.30489 0.25838 0.30489 0.25838 0.98702v4.2891h-1.0955v-4.1858q0-0.28939-0.10335-0.42891-0.10335-0.13953-0.32039-0.13953-0.53743 0-0.53743 0.74414v4.0101h-0.93017v-4.2891q0-0.46509-0.43408-0.46509-0.5271 0-0.5271 0.74414v4.0101h-1.0955v-5.4777h0.97151l0.07235 0.68213h0.08268q0.03101-0.39791 0.25838-0.58911 0.23254-0.19637 0.68213-0.19637 0.3514 0 0.57877 0.20154 0.22738 0.19637 0.30489 0.58394h0.08785q0.02584-0.3359 0.26355-0.5581 0.24288-0.22738 0.65629-0.22738z" />
<path d="m23.296 4.9196q0 0.37724-0.03101 0.7028h-3.7q0.14469 0.68213 0.65112 1.0387 0.50643 0.35657 1.3332 0.35657 0.63562 0 1.3436-0.14469l0.13436 0.96118q-0.75964 0.14469-1.602 0.14469-0.93534 0-1.5916-0.33073-0.65112-0.33073-0.99218-0.96635-0.34106-0.64079-0.34106-1.5555 0-0.88883 0.28939-1.5244t0.84232-0.97151q0.5581-0.3359 1.3384-0.3359 1.1162 0 1.7208 0.67696 0.60461 0.67696 0.60461 1.9482zm-0.99218-0.13436q0-0.7338-0.3514-1.1317-0.34623-0.39791-0.97151-0.39791-0.63562 0-1.0129 0.39791-0.37724 0.39791-0.44442 1.1317z" />
<path d="m29.476 7.8548q-0.72864 0.12402-1.4366 0.12402-0.83716 0-1.3539-0.22738-0.51676-0.22738-0.75964-0.7028-0.24288-0.47542-0.24288-1.2402v-2.5011h-1.3746v-0.9095h1.3746v-1.6536h1.0955v1.6536h2.4908v0.9095h-2.4908v2.4495q0 0.65629 0.32039 0.95084 0.32039 0.28939 1.0439 0.28939 0.23771 0 0.50643-0.025838 0.27388-0.025838 0.7028-0.077514z" />
<path d="m33.714 2.2944q0.86816 0 1.3436 0.5271 0.47542 0.5271 0.47542 1.4883v3.5657h-1.0955v-3.5657q0-0.51676-0.25838-0.80098t-0.72347-0.28422q-1.2919 0-1.2919 1.571v3.0799h-1.0955v-7.7514h1.0955v3.2659h0.10335q0.04651-0.55294 0.40308-0.82165 0.35657-0.27388 1.0439-0.27388z" />
<path d="m39.801 1.5296q-0.2067 0-0.3824-0.10335-0.1757-0.10335-0.27905-0.27905-0.10335-0.1757-0.10335-0.3824 0-0.20671 0.10335-0.3824 0.10335-0.1757 0.27905-0.27905 0.1757-0.10335 0.3824-0.10335t0.3824 0.10335q0.1757 0.10335 0.27905 0.27905 0.10335 0.1757 0.10335 0.3824 0 0.20671-0.10335 0.3824-0.10335 0.1757-0.27905 0.27905t-0.3824 0.10335zm0.60978 5.4467h1.6846v0.89917h-4.8679v-0.89917h2.0877v-3.669h-1.7777v-0.9095h2.8732z" />
<path d="m46.116 2.2944q0.86816 0 1.3436 0.5271 0.47542 0.5271 0.47542 1.4883v3.5657h-1.0955v-3.5657q0-0.51676-0.25838-0.80098-0.25838-0.28422-0.72347-0.28422-1.2919 0-1.2919 1.571v3.0799h-1.0955v-5.4777h0.99218l0.08785 0.99218h0.11886q0.04651-0.55294 0.40308-0.82165 0.35657-0.27388 1.0439-0.27388z" />
<path d="m54.136 2.3978v4.9919q0 0.98185-0.29456 1.6071-0.28939 0.62528-0.90434 0.94051-0.61495 0.32039-1.5916 0.35657l-1.602 0.05168-0.05168-0.97151 1.757-0.082682q0.82166-0.036176 1.1989-0.45992 0.3824-0.42375 0.3824-1.2764v-0.5271h-0.09302q-0.05168 0.46509-0.43925 0.70796-0.38757 0.24288-1.018 0.24288-0.69246 0-1.1834-0.32039-0.48576-0.32556-0.74414-0.95084-0.25321-0.62528-0.25321-1.5193 0-0.91467 0.25321-1.5658 0.25838-0.65112 0.74931-0.98702 0.49609-0.34106 1.1886-0.34106 0.65629 0 1.0129 0.27388 0.36173 0.26872 0.43408 0.82165h0.11886l0.08785-0.99218zm-2.4805 4.6509q1.3849 0 1.3849-0.93017v-1.3229q0-1.571-1.3953-1.571-0.60461 0-0.93534 0.5116-0.32556 0.5116-0.32556 1.4521 0 0.91984 0.32039 1.3901 0.32039 0.47025 0.95084 0.47025z" />

</svg>
