<svg width="40mm" height="40mm" version="1.1" viewBox="0 0 40 40" xmlns="http://www.w3.org/2000/svg">
<g transform="translate(6.2743e-7 -.00014846)">
<g stroke-width="1.2019" aria-label="ﰟ">

<style>
@keyframes animate {
0% {
filter: hue-rotate(360deg);}
100% {
filter: hue-rotate(0deg);}
}
path {
fill: url(#grad);
animation: animate linear 5s infinite ;
}
</style>

<linearGradient id="grad" gradientTransform="rotate (135)">
<stop offset="0%" stop-color="#f0f" />
<stop offset="100%" stop-color="#0ff" />
</linearGradient>

<path d="m6.1972 17.371h7.5117l-5.2582-5.2582q-1.5962 0-2.6291-1.0798-1.0329-1.0798-1.0329-2.6291t1.0329-2.5822 2.5822-1.0329 2.6291 1.0329q1.0798 1.0329 1.0798 2.6291l5.2582 5.2582v-7.5117q-1.0329-1.1268-1.0329-2.5822 0-1.4554 1.0798-2.5352 1.0798-1.0798 2.5822-1.0798t2.5822 1.0798q1.0798 1.0798 1.0798 2.5352 0 1.4554-1.0329 2.5822v7.5117l5.2582-5.2582q0.0939-1.5962 1.1268-2.6291 1.0329-1.0329 2.5822-1.0329t2.5822 1.0329q1.0329 1.0329 1.0329 2.5822t-1.0329 2.6291q-1.0329 1.0798-2.6291 1.0798l-5.2582 5.2582h7.5117q1.1268-1.0329 2.5822-1.0329 1.4554 0 2.5352 1.0798 1.0798 1.0798 1.0798 2.5822t-1.0798 2.5822-2.5352 1.0798q-1.4554 0-2.5822-1.0329h-7.5117l5.2582 5.2582q1.5962 0.0939 2.6291 1.1268 1.0329 1.0329 1.0329 2.5822t-1.0329 2.5822q-1.0329 1.0329-2.5822 1.0329t-2.5822-1.0329q-1.0329-1.0329-1.1268-2.6291l-5.2582-5.2582v7.5117q1.0329 1.1268 1.0329 2.5822 0 1.4554-1.0798 2.5352t-2.5822 1.0798-2.5822-1.0798q-1.0798-1.0798-1.0798-2.5352 0-1.4554 1.0329-2.5822v-7.5117l-5.2582 5.2582q0 1.5962-1.0798 2.6291-1.0798 1.0329-2.6291 1.0329t-2.5822-1.0329q-1.0329-1.0329-1.0329-2.5822t1.0329-2.5822q1.0329-1.0329 2.6291-1.1268l5.2582-5.2582h-7.5117q-1.1268 1.0329-2.5822 1.0329-1.4554 0-2.5352-1.0798-1.0798-1.0798-1.0798-2.5822t1.0798-2.5822q1.0798-1.0798 2.5352-1.0798 1.4554 0 2.5822 1.0329z"/>
</g>
</g>
</svg>
