<svg width="40mm" height="38.36mm" version="1.1" viewBox="0 0 40 38.36" xmlns="http://www.w3.org/2000/svg">
<g transform="translate(0 1.6417e-5)">

<style>
@keyframes animate {
0%, 15% {
transform: scaleY(1);
fill: green;}
85%, 100% {
transform: scaleY(-1);
fill: red;}
}
path {
animation: animate ease-in-out 1s infinite alternate;
transform-origin: center;
}
</style>

<path d="m5.9267 31.514q0.48114-0.45927 0.48114-1.1154t-0.48114-1.1372q-0.48114-0.48114-1.1372-0.48114t-1.1372 0.48114q-0.45927 0.48114-0.45927 1.1372t0.45927 1.1154q0.45927 0.45927 1.1372 0.45927 0.6561 0 1.1372-0.45927zm4.4615-13.931v16.009q0 0.6561-0.48114 1.1154-0.45927 0.45927-1.1154 0.45927h-7.1952q-0.6561 0-1.1372-0.45927-0.45927-0.45927-0.45927-1.1154v-16.009q0-0.6561 0.45927-1.1372 0.48114-0.48114 1.1372-0.48114h7.1952q0.6561 0 1.1154 0.48114 0.48114 0.48114 0.48114 1.1372zm29.612 0q0 2.1432-1.3778 3.7179 0.37179 1.0498 0.37179 1.9245 0.06561 1.8808-1.0716 3.4117 0.4374 1.3997 0 2.9306-0.37179 1.3997-1.3559 2.3182 0.2187 2.7993-1.2247 4.5489-1.6184 1.9245-4.9207 1.9245h-3.2367q-1.6402 0-3.6085-0.37179-1.9464-0.37179-3.018-0.72171t-3.018-1.006q-3.0837-1.0498-3.9366-1.0935-0.6561 0-1.1372-0.45927-0.45927-0.45927-0.45927-1.1154v-16.052q0-0.61236 0.4374-1.0716 0.4374-0.45927 1.0716-0.50301 0.61236-0.04374 1.9245-1.4872 1.3122-1.4434 2.515-3.018 1.6402-2.1432 2.515-3.018 0.45927-0.4374 0.78732-1.2028 0.32805-0.76545 0.41553-1.181 0.10935-0.41553 0.34992-1.509 0.19683-1.0498 0.30618-1.5528 0.13122-0.50301 0.48114-1.2685 0.34992-0.76545 0.85292-1.2466 0.48114-0.48114 1.1372-0.48114 1.1591 0 2.0776 0.26244 0.91853 0.26244 1.4872 0.63423 0.56862 0.37179 0.98414 1.006 0.41553 0.63423 0.61236 1.1372t0.30618 1.2466 0.10935 1.1154q0.02187 0.37179 0.02187 0.98414 0 0.96227-0.24057 1.9027-0.2187 0.9404-0.48114 1.509-0.24057 0.56862-0.67797 1.3997-0.06561 0.08748-0.26244 0.41553-0.17496 0.32805-0.28431 0.56862-0.08748 0.24057-0.17496 0.59049h6.9109q1.9464 0 3.368 1.4215 1.4434 1.4215 1.4434 3.3898z"/>

</g>
</svg>
