<svg width="6.2012mm" height="4.9609mm" version="1.1" viewBox="0 0 6.2012 4.9609" xmlns="http://www.w3.org/2000/svg" xmlns:xlink="http://www.w3.org/1999/xlink">
<defs>
<linearGradient id="linearGradient11590" x1="1.5714" x2="21.84" y1="7.7959" y2="7.7959" gradientUnits="userSpaceOnUse">
<stop style="stop-color:#ff0" offset="0"/>
<stop style="stop-color:#f0f" offset="1"/>
</linearGradient>
</defs>
<g style="stroke-width:.26458" aria-label="">

<style>

@keyframes animate {
0, 10% {
filter: grayscale(0%);}
90%, 100% {
filter: grayscale(100%);}
}

path {
animation: animate ease-in-out 2.5s infinite alternate ;
}

</style>

<path d="m5.7877 3.6173v-3.1006q0-0.041341-0.031006-0.072347t-0.072347-0.031006h-5.1676q-0.041341 0-0.072347 0.031006t-0.031006 0.072347v3.1006q0 0.041341 0.031006 0.072347t0.072347 0.031006h5.1676q0.041341 0 0.072347-0.031006t0.031006-0.072347zm0.41341-3.1006v3.1006q0 0.21704-0.15503 0.3669-0.14986 0.14986-0.36173 0.14986h-2.3771v0.41341h1.1369q0.046509 0 0.072347 0.031006 0.031006 0.031006 0.031006 0.072347v0.2067q0 0.046509-0.031006 0.077514-0.025838 0.025838-0.072347 0.025838h-2.6872q-0.046509 0-0.077514-0.025838-0.025838-0.031006-0.025838-0.077514v-0.20671q0-0.041341 0.025838-0.072347 0.031006-0.031006 0.077514-0.031006h1.1369v-0.41341h-2.3771q-0.21187 0-0.3669-0.14986-0.14986-0.14986-0.14986-0.3669v-3.1006q0-0.21187 0.14986-0.36173 0.15503-0.15503 0.3669-0.15503h5.1676q0.21187 0 0.36173 0.15503 0.15503 0.14986 0.15503 0.36173z" style="fill:#7f7f7f"/>
</g>
<path transform="scale(.26458)" d="m1.6984 13.903c-0.10298-0.11379-0.10694-0.30564-0.123-5.9628-0.011525-4.0597 0.0018-5.9087 0.043619-6.053 0.049902-0.17217 0.095783-0.21802 0.26795-0.2678 0.14562-0.042098 3.1248-0.055141 9.963-0.043619 9.5025 0.016011 9.7583 0.019195 9.8729 0.12285l0.11758 0.10641v5.9961c0 5.9216-0.0014 5.9975-0.11172 6.1078-0.11088 0.11088-0.18619 0.11172-10.018 0.11172h-9.9061z" style="fill:url(#linearGradient11590);paint-order:markers fill stroke"/>
</svg>
