<svg width="40mm" height="40mm" version="1.1" viewBox="0 0 40 40" xmlns="http://www.w3.org/2000/svg">
<g transform="matrix(3.9817 0 0 3.9817 0 -1.0191e-6)" stroke-width=".26458" aria-label="îŠ">

<style>
@keyframes animate {
0% {
filter: brightness(0%);}
100% {
filter: brightness(100%);}
}
path {
fill: url(#grad);
animation: animate ease 1s infinite alternate ;
}
</style>

<linearGradient id="grad" gradientTransform="rotate (45)">
<stop offset="0%" stop-color="#DEFF76" />
<stop offset="50%" stop-color="#c4fe5c" />
<stop offset="100%" stop-color="#4cb30a" />
</linearGradient>

<path d="m5.0229 1.881q1.6123-1.3229 2.8732-0.97151-1.2196-0.88883-2.7492-0.9095h-0.24805q-1.5296 0.020671-2.7492 0.9095 1.2609-0.3514 2.8732 0.97151zm-1.1369 0.88883q-1.0542-1.1162-2.0877-1.5089h-0.041341q-0.02067-0.02067-0.041341-0.02067-0.041341 0.041341-0.12402 0.11369-0.082682 0.072347-0.12402 0.11369v0.020671q-0.39274 0.39274-0.72347 0.88883-0.7028 1.1162-0.74414 2.5218v0.24805q0.020671 1.633 1.0335 2.9145 0.041341-0.64079 0.16536-1.1162 0.51676-2.0464 2.6872-4.1754zm5.4157-0.39274q-0.33073-0.49609-0.72347-0.88883l-0.02067-0.020671q-0.02067-0.041341-0.062012-0.072347-0.041341-0.031006-0.093017-0.082682t-0.072347-0.072347q-0.02067 0-0.041341 0.020671h-0.041341q-1.0335 0.37207-2.0877 1.5089v0.020671q2.1291 2.0464 2.7078 4.1754 0.14469 0.57877 0.16536 1.0749 0.97151-1.2196 1.0129-2.8939v-0.24805q-0.041341-1.4056-0.74414-2.5218zm-0.62012 5.7877q-0.02067-0.041341-0.051676-0.12402-0.031006-0.082682-0.031006-0.10335v-0.041341q-0.82682-1.9637-2.9766-3.6794-0.10335-0.10335-0.33073-0.26872t-0.26872-0.20671q-0.041341 0.041341-0.26872 0.20671-0.22738 0.16536-0.33073 0.26872-2.2944 1.8397-3.0592 3.9274-0.041341 0.082682-0.041341 0.12402 0 0.02067-0.041341 0.10335l0.18603 0.18603q1.4263 1.4676 3.4313 1.4883h0.24805q2.0257-0.020671 3.4106-1.4883 0.062012-0.041341 0.20671-0.18603-0.041341-0.082682-0.041341-0.10335 0-0.02067-0.010335-0.051676t-0.031006-0.051677z"/>
</g>
</svg>
