<svg width="6.2012mm" height="6.2012mm" version="1.1" viewBox="0 0 6.2012 6.2012" xmlns="http://www.w3.org/2000/svg">
<g style="fill:#aaa;stroke-width:.26458" aria-label="ﭾ">

<style>

@keyframes animate {
0% {
filter: invert(0%);}
100% {
filter: invert(100%);}
}

path {
animation: animate ease-in-out 2.5s infinite alternate ;
}

</style>

<path d="m3.1006-5.6811e-8q1.3229 0.031006 2.1962 0.90433 0.87333 0.87333 0.90433 2.1962-0.031006 1.3229-0.90433 2.1962-0.87333 0.87333-2.1962 0.90433-1.3229-0.031006-2.1962-0.90433-0.87333-0.87333-0.90433-2.1962 0.031006-1.3229 0.90433-2.1962 0.87333-0.87333 2.1962-0.90433zm0 0.60978q-1.0645 0.031006-1.7622 0.72864-0.69763 0.69763-0.72864 1.7622 0.031006 1.0645 0.72864 1.7622 0.69763 0.69763 1.7622 0.72864-0.52193-0.015503-0.87333-0.36173-0.3514-0.3514-0.3514-0.88366 0-0.53227 0.3514-0.8785 0.3514-0.3514 0.87333-0.3669t0.87333-0.36173q0.3514-0.3514 0.3514-0.88366 0-0.53227-0.3514-0.8785-0.3514-0.3514-0.87333-0.3669zm0 0.78548q0.20154 0 0.33073 0.13436 0.13436 0.12919 0.13436 0.32556 0 0.19637-0.13436 0.33073-0.12919 0.12919-0.33073 0.12919-0.20154 0-0.3359-0.12919-0.12919-0.13436-0.12919-0.33073 0-0.19637 0.12919-0.32556 0.13436-0.13436 0.3359-0.13436zm0 2.4753q-0.20154 0.015503-0.3359 0.14986-0.12919 0.12919-0.12919 0.32556 0 0.19637 0.12919 0.33073 0.13436 0.12919 0.3359 0.12919 0.20154 0 0.33073-0.12919 0.13436-0.13436 0.13436-0.33073 0-0.19637-0.13436-0.32556-0.12919-0.13436-0.33073-0.14986z" style="fill:#fff"/>
</g>
<path transform="scale(.26458)" d="m11.004 17.94c-0.60794-0.2702-0.87532-0.67089-0.9208-1.3799-0.0322-0.50194 0.0084-0.71975 0.18746-1.0049 0.71498-1.1389 2.3932-1.0542 2.9644 0.14966 0.24031 0.50641 0.18039 1.2809-0.13208 1.7074-0.45006 0.6143-1.3789 0.84783-2.099 0.52776zm-2.4067 2.5761c-4.0713-1.4373-6.6863-5.6139-6.1483-9.8196 0.47883-3.7428 2.7938-6.6352 6.2327-7.7874 2.6312-0.88154 4.6351-0.65357 6.1293 0.69728 1.9001 1.7178 1.9645 4.8762 0.13672 6.704-0.79896 0.79896-1.6722 1.1626-3.2666 1.3604-1.5874 0.19691-2.4323 0.54721-3.22 1.3349-0.67076 0.67076-1.0293 1.281-1.2496 2.127-0.31131 1.1955-0.16402 2.5587 0.39484 3.6541 0.29261 0.57356 1.1592 1.4497 1.7335 1.7525 0.6048 0.31895 0.19009 0.30592-0.7425-0.02333zm4.1298-12.003c1.0071-0.75187 1.0497-2.2659 0.083253-2.9541-0.49781-0.35447-1.5649-0.40241-2.0587-0.092492-0.53064 0.33299-0.80801 0.8534-0.8085 1.517-8.603e-4 1.1568 0.82869 1.9195 1.953 1.7955 0.30635-0.033773 0.68028-0.15345 0.83096-0.26595z" style="fill:#000;paint-order:markers fill stroke"/>
</svg>
